<svg width="94" height="122" viewBox="0 0 94 122" fill="none" xmlns="http://www.w3.org/2000/svg">
<rect x="0.5" y="0.5" width="84" height="16" fill="#96BF47" stroke="black"/>
<rect x="51.0508" y="16.0035" width="105.072" height="19.154" transform="rotate(90.0113 51.0508 16.0035)" fill="black"/>
<rect x="50.0204" y="16.0033" width="103.767" height="17" transform="rotate(90.0113 50.0204 16.0033)" fill="#96BF47"/>
<path d="M90.6088 40.2835V35.4081C87.048 32.8644 77.4129 31.5926 67.5685 35.4081C51.2447 41.7348 62.5415 55.5238 66.5212 57.0294C72.8049 61.4809 87.1736 66.6107 83.4872 72.7155C79.8007 78.8204 67.4289 76.3897 61.2848 74.1993V79.9226C67.5685 83.3849 82.2305 87.8505 90.6088 78.0149C98.9871 68.1793 83.4872 56.1816 72.8049 51.7301C58.3523 41.3434 79.2283 39.0823 90.6088 40.2835Z" fill="#96BF47" stroke="black"/>
</svg>
